<svg id="图层_1" data-name="图层 1" xmlns="http://www.w3.org/2000/svg" viewBox="0 0 399.42 138.57"><defs><style>.cls-1{fill:#e17910;}.cls-2{fill:#3989bf;}.cls-3{fill:#7cad2a;}.cls-4{fill:#e3d821;}.cls-5{fill:#585858;}.cls-6{fill:none;stroke:#585858;stroke-miterlimit:10;stroke-width:0.51px;}.cls-7{fill:#080103;}</style></defs><title>logo-01</title><path class="cls-1" d="M8.21,81.06a15.59,15.59,0,1,0,21.51,22.56L64.91,70.21,43.58,47.68Z"/><path class="cls-1" d="M31.54,34.81A15.59,15.59,0,1,0,9,56.32L42.35,91.7,64.91,70.18Z"/><path class="cls-2" d="M59.16,7.4A15.59,15.59,0,0,0,36.59,28.92L70,64.11,92.53,42.78Z"/><path class="cls-2" d="M105.4,30.73A15.59,15.59,0,1,0,83.89,8.17L48.52,41.55,70,64.11Z"/><path class="cls-3" d="M133.31,59.86A15.59,15.59,0,0,0,111.8,37.29L76.61,70.71,97.94,93.23Z"/><path class="cls-3" d="M110,106.1a15.59,15.59,0,1,0,22.56-21.51L99.17,49.22,76.6,70.73Z"/><path class="cls-4" d="M81.86,131.5A15.59,15.59,0,0,0,104.43,110L71,74.8,48.48,96.13Z"/><path class="cls-4" d="M35.61,108.17a15.59,15.59,0,0,0,21.51,22.57L92.5,97.37,71,74.8Z"/><path class="cls-5" d="M172.6,70h-6V34H197.8V70h-6.13V67.16H172.6Zm19.07-22.05V39.64H172.6v8.29ZM172.6,53.24v8.62h19.07V53.24Z"/><path class="cls-5" d="M227,46.1l3.15-3.81q3,2.16,6.3,5l-3.65,4.31C232,50.69,230.1,48.87,227,46.1Zm4.64,8a34,34,0,0,0,4.48,1.65,1.13,1.13,0,0,0,.49.17c-.33,1.32-.82,3.31-1.49,6q-1.32,5.48-2.15,8.29l-1.5-.5a23.63,23.63,0,0,0-3.64-1Q229.82,62.52,231.65,54.07ZM228,35.49l3.48-3.64q3,2.15,6.3,5l-3.64,4c-.89-.88-2.32-2.16-4.31-3.81C229.05,36.32,228.44,35.83,228,35.49Zm7.8,19.74v-4h3.64l.67-6.31c-.67.56-1.33,1.16-2,1.83q-1.34-1.83-3.16-4.15a36.38,36.38,0,0,0,7.8-10.94l5.64.83c-.23.33-.56.89-1,1.66a1.25,1.25,0,0,0-.16.5h18.07V39H244.58l-1,1.49c-.33.44-.61.83-.83,1.16h20.39C263,44.84,263,48,263,51.25h3.15v4H263c-.11,1.77-.17,3.59-.17,5.47h3v4h-3.15a4.85,4.85,0,0,1-1.33,3.81c-.66.89-2.05,1.38-4.15,1.49q-1.49.17-7.62.17l-.5-2a18.52,18.52,0,0,1-.66-2h6A13.4,13.4,0,0,0,257,66a2.35,2.35,0,0,0,.33-1.32H238.12l.82-9.45Zm11.1,2.32,2.49-2.32h-5.14l-.5,5.47h7.3Q248.89,59,246.9,57.55Zm.17-9.62,2.32-2.32h-4.14l-.67,5.64h6.64C249.67,49.92,248.28,48.82,247.07,47.93Zm8,10.45-2.49,2.32h5c0-1.66.05-3.49.16-5.47h-7.29a22.53,22.53,0,0,1,2.48,1.65C253.76,57.55,254.47,58,255,58.38Zm0-9.79-2.49,2.66h5.14c0-1.77.06-3.65.17-5.64h-7.3a16.23,16.23,0,0,1,2.16,1.49C253.7,47.76,254.47,48.26,255,48.59Z"/><path class="cls-5" d="M303.3,57.71v12.6h-5V58.54c-.66.11-1.6.33-2.81.66a30.52,30.52,0,0,0-3.32.67l-.66-5.8c1.1-.11,3-.34,5.63-.67a6.83,6.83,0,0,1,1.16-.16v-8h-2.48a24,24,0,0,1-.67,3l-.49,2.49a2,2,0,0,0-.5-.33,10.24,10.24,0,0,0-2.82-1.5,76.8,76.8,0,0,0,2-13.76l3.48.33A44.6,44.6,0,0,1,296.5,40q.33-2.16,0,.33h1.82V32h5V40.3h3v1.49a59.12,59.12,0,0,0,4.15-10.11q3,.49,5.3,1-.66,1.65-2,4.64a1.16,1.16,0,0,0-.17.5h15.58q0,10.11-.49,24.37-.17,6.8-5.81,6.8c-1.65.11-3.59.16-5.8.16A22.48,22.48,0,0,0,315.73,64a60.06,60.06,0,0,1-6.63,6A42.71,42.71,0,0,0,305,66q12.44-7.95,13.92-22.88h-2q-1.5,10.11-8.46,16.08c-.78-.66-1.49-1.32-2.16-2C305.29,57.33,304.29,57.49,303.3,57.71Zm4.15-9.12a34.57,34.57,0,0,0-2.16-3q-.33-.16-.33-.33H303.3v7.13a30.11,30.11,0,0,1,3.65-.5,9.31,9.31,0,0,0-.17,1.82,21.91,21.91,0,0,0,6.3-10.61h-1.82A36.84,36.84,0,0,1,307.45,48.59ZM320.54,64q3.15,0,3.15-3.48.33-5.81.67-16.41-.18,7.13,0-1h-1.83q0,12.27-6.63,20.73c.55,0,1.38.06,2.49.16Z"/><path class="cls-5" d="M356.88,66l-1-5.14a6.61,6.61,0,0,0,2.16-.33V38.64h-1.66v-4.8h16.91v4.8h-1.66v19.9A13.2,13.2,0,0,1,374,58c-.11.78-.22,1.94-.33,3.49a13.12,13.12,0,0,0-.16,1.65,6.17,6.17,0,0,0-1.83.33v6.8h-4.81v-6a17.94,17.94,0,0,1-2,.33C363.4,65,360.74,65.45,356.88,66Zm5.8-27.36v4h4.14v-4Zm0,8.29v4.15h4.14V46.93Zm4.14,12.44v-4h-4.14V60c.44-.1,1.16-.21,2.15-.33A9.18,9.18,0,0,1,366.82,59.37Zm7.8-25.53,4-2.16a54.37,54.37,0,0,1,4,5.8l-3.82,1.83h5.31a58.49,58.49,0,0,0,4-7.8l5.14,2.16q-2,3-3.48,5.64h4V44h-7.79v5.47H395v4.65h-8.12q2.31,7.78,8.45,11.27a26.34,26.34,0,0,0-3.15,5,24,24,0,0,1-8.29-12.93,21.37,21.37,0,0,1-8.12,13.1Q374,68.16,372,66q6.48-3.81,8.29-11.93h-7.12V49.42h7.62v-1c.11-1.66.17-3.15.17-4.48h-6.8V39.31h3.81c-.22-.33-.55-.88-1-1.66Q375.44,35,374.62,33.84Z"/><line class="cls-6" x1="281.33" y1="28.45" x2="281.33" y2="72.83"/><line class="cls-6" x1="215.73" y1="28.45" x2="215.73" y2="72.83"/><line class="cls-6" x1="342.11" y1="28.45" x2="342.11" y2="72.83"/><path class="cls-7" d="M395.32,79H373.66a.4.4,0,0,0-.4.39V84a.39.39,0,0,0,.4.39h8.1v25.41a.39.39,0,0,0,.39.39h4.68a.39.39,0,0,0,.39-.39V84.42h8.1a.38.38,0,0,0,.39-.39V79.39A.39.39,0,0,0,395.32,79Z"/><path class="cls-7" d="M189.75,99.33h0c-.84-3.17-4.11-4.83-4.11-4.83h0c-.38-.23-.73-.41-1-.53-3.46-1.63-8.2-3.28-10.56-4.13-2-.72-2.45-1.48-2.56-1.78a3.51,3.51,0,0,1-.07-1.12h0a2,2,0,0,1,2.14-1.81h16.52V79H172.81a8.14,8.14,0,0,0-.87,0,6.68,6.68,0,0,0-5.16,2.73h0a5.75,5.75,0,0,0-1,2l0,.21c-.05.19-.09.39-.13.6-.27,1.5-.56,4.77,1.48,7.06a10.44,10.44,0,0,0,3.71,2.18h0l10.07,3.93h0l.61.24c1,.42,2.72,1.41,3.11,3.11a4.2,4.2,0,0,1,.07.5v.06c0,.11,0,.18,0,.18a2.24,2.24,0,0,1-.65,1.57h0c-.09.08-1.31,1.09-5,1.24h-2a6.83,6.83,0,0,0-.91,0H165.83v5.77h15.61a9,9,0,0,0,5.66-1.83l.22-.18h0l0,0a6.42,6.42,0,0,0,.92-1A9.2,9.2,0,0,0,189.75,99.33Z"/><path class="cls-7" d="M260.16,99.33h0c-.84-3.17-4.11-4.83-4.11-4.83h0a10.32,10.32,0,0,0-1-.53c-3.46-1.63-8.19-3.28-10.56-4.13-2-.72-2.45-1.48-2.56-1.78a3.82,3.82,0,0,1-.07-1.12h0A2,2,0,0,1,244,85.13h16.52V79H243.21a8.27,8.27,0,0,0-.86,0,6.68,6.68,0,0,0-5.16,2.73h0a6.1,6.1,0,0,0-1,2l0,.21a5.29,5.29,0,0,0-.13.6c-.27,1.5-.55,4.77,1.48,7.06a10.55,10.55,0,0,0,3.71,2.18h0l10.07,3.93h0l.61.24c1,.42,2.72,1.41,3.11,3.11a4.2,4.2,0,0,1,.07.5.13.13,0,0,0,0,.06v.18a2.24,2.24,0,0,1-.65,1.57h0c-.09.08-1.31,1.09-5,1.24h-2a6.83,6.83,0,0,0-.91,0H236.24v5.77h15.61a9,9,0,0,0,5.66-1.83,1.92,1.92,0,0,0,.22-.18h0l0,0a6,6,0,0,0,.92-1A9.17,9.17,0,0,0,260.16,99.33Z"/><rect class="cls-7" x="182.94" y="89.04" width="25.63" height="5.57" transform="translate(103.93 287.58) rotate(-90)"/><rect class="cls-7" x="198.54" y="104.64" width="17.22" height="5.58"/><rect class="cls-7" x="197.46" y="91.74" width="31.03" height="5.58" transform="translate(118.45 307.5) rotate(-90)"/><rect class="cls-7" x="217.35" y="94.45" width="25.61" height="5.58" transform="translate(132.92 327.39) rotate(-90)"/><rect class="cls-7" x="250.31" y="91.74" width="31.03" height="5.58" transform="translate(171.3 360.35) rotate(-90)"/><rect class="cls-7" x="263.04" y="104.46" width="22.53" height="5.58"/><rect class="cls-7" x="263.04" y="79.01" width="22.53" height="5.57"/><rect class="cls-7" x="270.47" y="91.95" width="15.1" height="5.58"/><path class="cls-7" d="M193,104.64s-.3,5.58,5.57,5.58,1.26-5.58,1.26-5.58"/><rect class="cls-7" x="217.62" y="79.01" width="9.89" height="5.57" transform="translate(445.13 163.6) rotate(180)"/><path class="cls-7" d="M232.93,84.59s.31-5.58-5.57-5.58-1.25,5.58-1.25,5.58"/><polygon class="cls-7" points="288.43 110.04 294.15 110.04 303.07 79.01 297.46 79.01 288.43 110.04"/><polygon class="cls-7" points="312.11 110.04 306.38 110.04 297.46 79.01 303.07 79.01 312.11 110.04"/><rect class="cls-7" x="381.74" y="79.01" width="5.48" height="30.82"/><rect class="cls-7" x="334.9" y="79.01" width="5.48" height="30.82"/><path class="cls-7" d="M359.4,86.65a11.91,11.91,0,1,0,11.9,11.9A11.9,11.9,0,0,0,359.4,86.65Zm0,18.33a6.43,6.43,0,1,1,6.42-6.43A6.43,6.43,0,0,1,359.4,105Z"/></svg>